<svg width="500" height="500" viewBox="0 0 500 500" fill="none" xmlns="http://www.w3.org/2000/svg">
<path d="M418.291 418.291C422.978 422.978 430.599 422.997 435.055 418.091C454.714 396.448 470.446 371.499 481.506 344.366C494.078 313.525 500.36 280.482 499.984 247.179C499.608 213.876 492.582 180.984 479.318 150.434C467.648 123.557 451.358 98.9701 431.215 77.7761C426.65 72.9721 419.03 73.1631 414.451 77.9539L410.305 82.2912C405.726 87.0821 405.924 94.6563 410.458 99.49C427.728 117.902 441.722 139.172 451.799 162.382C463.472 189.266 469.655 218.211 469.986 247.518C470.317 276.824 464.788 305.902 453.725 333.042C444.174 356.474 430.664 378.054 413.813 396.851C409.39 401.786 409.362 409.362 414.049 414.049L418.291 418.291Z" fill="#237BBD"/>
<path d="M342.243 178.026C345.726 175.308 350.777 175.915 353.266 179.565C367.287 200.121 374.89 224.452 374.999 249.456C375.108 274.459 367.717 298.856 353.876 319.533C351.418 323.204 346.373 323.855 342.866 321.168L333.738 314.173C330.231 311.485 329.598 306.48 331.989 302.764C342.163 286.956 347.581 268.488 347.499 249.575C347.417 230.663 341.837 212.243 331.526 196.524C329.103 192.829 329.693 187.818 333.176 185.1L342.243 178.026Z" fill="#237BBD"/>
<path d="M378.819 129.13C382.831 125.395 389.125 125.57 392.686 129.737C421.084 162.966 436.842 205.118 436.999 248.841C437.156 292.564 421.701 334.825 393.543 368.253C390.011 372.445 383.719 372.665 379.68 368.959L372.422 362.298C368.322 358.536 368.11 352.169 371.646 347.872C394.569 320.014 407.129 285.074 406.999 248.947C406.869 212.818 394.059 177.968 370.936 150.272C367.369 146 367.536 139.632 371.609 135.84L378.819 129.13Z" fill="#237BBD"/>
<path d="M151.921 269.155C154.326 281.386 159.02 293.111 165.817 303.691C175.853 319.312 190.067 331.817 206.851 339.79C223.634 347.763 242.318 350.887 260.787 348.809C275.271 347.178 289.17 342.399 301.527 334.864C307.18 331.418 314.686 332.232 318.794 337.424L397.373 436.752C401.489 441.955 400.618 449.536 395.218 453.39C360.574 478.115 320.126 493.649 277.679 498.427C231.242 503.654 184.267 495.8 142.069 475.753C99.8712 455.706 64.1335 424.267 38.9004 384.993C16.4949 350.12 3.16755 310.305 0.000976562 269.155H151.921ZM135.747 27.3613C177.363 6.13634 224.098 -3.03566 270.663 0.883776C313.228 4.46659 354.099 18.8567 389.427 42.5986C394.933 46.2991 396.017 53.8533 392.049 59.1699L316.302 160.666C312.342 165.972 304.862 166.997 299.114 163.711C286.549 156.527 272.521 152.14 257.997 150.918C239.476 149.359 220.888 153.007 204.336 161.449C187.784 169.891 173.929 182.79 164.337 198.687C158.501 208.359 154.388 218.907 152.119 229.863H0.0771484C3.18528 191.457 15.1534 154.173 35.1777 120.985C59.2935 81.0172 94.1309 48.5863 135.747 27.3613Z" fill="#EC5E42"/>
</svg>
