<svg width="500" height="500" viewBox="0 0 500 500" fill="none" xmlns="http://www.w3.org/2000/svg">
<circle cx="250" cy="250" r="250" fill="#F1F1F1"/>
<mask id="mask0_2059_951" style="mask-type:alpha" maskUnits="userSpaceOnUse" x="0" y="0" width="500" height="500">
<circle cx="250" cy="250" r="250" fill="#F1F1F1"/>
</mask>
<g mask="url(#mask0_2059_951)">
<path d="M330.814 -156.959C341.405 -160.095 352.628 -154.06 354.812 -143.233C364.879 -93.3262 357.751 -41.2512 334.242 4.35146C307.666 55.9042 262.208 95.2027 207.355 114.047C152.501 132.891 92.4899 129.824 39.8428 105.488C-6.72782 83.9596 -44.3534 47.2591 -67.081 1.70148C-72.0119 -8.18253 -66.8674 -19.8399 -56.5848 -23.8741L134.253 -98.747L330.814 -156.959Z" fill="#177FC3"/>
<path d="M540.915 524.505C537.066 534.858 525.503 540.211 515.532 535.458C469.574 513.55 432.205 476.588 409.846 430.411C384.57 378.209 380.428 318.262 398.286 263.079C416.144 207.897 454.621 161.742 505.69 134.246C550.864 109.924 602.802 101.863 652.882 111.035C663.747 113.025 669.982 124.137 667.035 134.783L612.356 332.356L540.915 524.505Z" fill="#333333"/>
<path d="M497.669 609.839C493.819 620.192 482.274 625.521 472.176 621.042C402.098 589.96 345.041 534.979 311.444 465.594C274.934 390.19 268.952 303.6 294.747 223.893C320.541 144.185 376.12 77.5168 449.885 37.8002C517.763 1.25358 596.214 -9.87426 671.216 5.99328C682.022 8.27952 688.257 19.3625 685.311 30.008L683.315 37.2213C680.368 47.8669 669.359 54.0328 658.529 51.8605C595.354 39.1883 529.494 48.867 472.396 79.6097C409.408 113.523 361.95 170.451 339.924 238.513C317.898 306.575 323.006 380.513 354.182 444.9C382.443 503.266 430.146 549.695 488.767 576.438C498.816 581.023 504.126 592.47 500.277 602.823L497.669 609.839Z" fill="#333333"/>
<path d="M434.942 -181.273C445.589 -184.215 456.669 -177.975 458.951 -167.168C474.788 -92.1595 463.627 -13.7128 427.053 54.1496C387.306 127.898 320.615 183.449 240.897 209.211C161.178 234.973 74.591 228.955 -0.797372 192.414C-70.1686 158.789 -125.126 101.709 -156.18 31.6181C-160.654 21.5192 -155.32 9.97559 -144.966 6.13052L-137.949 3.52512C-127.594 -0.319948 -116.149 4.99456 -111.569 15.0458C-84.8502 73.6778 -38.4404 121.4 19.914 149.684C84.2877 180.887 158.224 186.025 226.295 164.027C294.366 142.029 351.313 94.5948 385.253 31.6213C416.019 -25.4638 425.725 -91.3199 413.079 -154.5C410.911 -165.331 417.081 -176.338 427.728 -179.28L434.942 -181.273Z" fill="#177FC3"/>
<path d="M-240.711 322.6C-249.427 315.815 -251.037 303.201 -243.728 294.918C-193.006 237.435 -123.409 199.558 -47.1317 188.388C35.7618 176.249 120.141 196.59 188.399 245.165C256.656 293.741 303.519 366.799 319.208 449.094C333.645 524.821 320.66 602.987 282.968 669.743C277.537 679.361 265.092 681.973 255.825 675.961L249.547 671.888C240.28 665.876 237.711 653.521 243.041 643.846C274.129 587.409 284.708 521.688 272.564 457.987C259.167 387.715 219.151 325.332 160.866 283.853C102.582 242.375 30.5307 225.006 -40.2516 235.371C-104.415 244.767 -163.043 276.295 -206.18 324.157C-213.575 332.362 -226.09 333.983 -234.806 327.198L-240.711 322.6Z" fill="#D9272C"/>
<path d="M-100.225 337.625C-105.537 327.94 -102.021 315.693 -91.903 311.261C-45.2682 290.835 7.13364 286.753 56.6857 300.052C112.703 315.087 160.751 351.173 190.803 400.78C220.856 450.386 230.591 509.682 217.977 566.294C206.819 616.372 178.937 660.927 139.238 692.802C130.625 699.718 118.141 697.164 112.018 687.971L-1.63764 517.362L-100.225 337.625Z" fill="#D9272C"/>
<path d="M497.669 609.839C493.819 620.192 482.275 625.521 472.178 621.043C417.262 596.684 370.042 557.514 335.92 507.753C301.798 457.991 282.278 399.828 279.346 339.824C278.807 328.791 287.938 319.943 298.983 320.084L306.467 320.179C317.512 320.319 326.276 329.398 326.932 340.424C329.915 390.627 346.499 439.215 375.082 480.899C403.665 522.583 443.012 555.563 488.767 576.438C498.816 581.023 504.126 592.47 500.277 602.823L497.669 609.839Z" fill="#333333"/>
</g>
</svg>
